# xmcd
#
# Track frame offsets:
#  150
#  14134
#  31241
#  43565
#  55814
#  70443
#  91091
#  104488
#  115537
#  133341
#  146914
#  161080
#  173906
#  191944
#  210055
#  222859
#  237968
#  251456
#  266148
#  284922
#  299749
#  313789
#  330908
#
# Disc length: 4688 seconds
#
# Revision: 0
# Processed by: cddbd v1.5.2PL0 Copyright (c) Steve Scherf et al.
# Submitted via: Collectorz.com_Music_Collector 6.11
#
DISCID=6c124e17
DTITLE=Kikki Danielsson - Kikkis bästa [CD1)
DYEAR=1900
DGENRE=
TTITLE0=Bra vibrationer
TTITLE1=En Timme för sent
TTITLE2=Nine To Five
TTITLE3=Miss Decibel
TTITLE4=Lätta dina vingar
TTITLE5=Minnet
TTITLE6=Idag och imorgon
TTITLE7=Diggy Diggy Lou
TTITLE8=Papaza Coconut
TTITLE9=God morgon
TTITLE10=Ett hus med manga rum
TTITLE11=Rock'n Yodel
TTITLE12=När vi rör varann
TTITLE13=Vem gar med dig hem
TTITLE14=Öppna vatten
TTITLE15=En allra sista chans
TTITLE16=I Love A Rainy Night
TTITLE17=You Don't Have To Say You Love Me
TTITLE18=Mitt innersta rum
TTITLE19=I mitt hjärta brinner lagan
TTITLE20=en enda gang
TTITLE21=Sangen skall klinga
TTITLE22=Vänta ännu pa den morgon
EXTD=
EXTT0=
EXTT1=
EXTT2=
EXTT3=
EXTT4=
EXTT5=
EXTT6=
EXTT7=
EXTT8=
EXTT9=
EXTT10=
EXTT11=
EXTT12=
EXTT13=
EXTT14=
EXTT15=
EXTT16=
EXTT17=
EXTT18=
EXTT19=
EXTT20=
EXTT21=
EXTT22=
PLAYORDER=
